<mxfile host="app.diagrams.net" agent="Mozilla/5.0 (Windows NT 10.0; Win64; x64; rv:128.0) Gecko/20100101 Firefox/128.0" version="24.7.6">
  <diagram name="第 1 页" id="xU-oQibJRFpctl82YRzA">
    <mxGraphModel dx="2217" dy="3357" grid="1" gridSize="10" guides="1" tooltips="1" connect="1" arrows="1" fold="1" page="1" pageScale="1" pageWidth="850" pageHeight="1100" math="0" shadow="0">
      <root>
        <mxCell id="0" />
        <mxCell id="1" parent="0" />
        <mxCell id="b8AhEYNzeCTfe8Gavcil-25" value="" style="ellipse;fillColor=strokeColor;" vertex="1" parent="1">
          <mxGeometry x="180" y="410" width="20" height="20" as="geometry" />
        </mxCell>
        <mxCell id="b8AhEYNzeCTfe8Gavcil-27" value="Searching Patient-record" style="rounded=1;absoluteArcSize=1;arcSize=14;whiteSpace=wrap;strokeWidth=2;" vertex="1" parent="1">
          <mxGeometry x="550" y="380" width="80" height="80" as="geometry" />
        </mxCell>
        <mxCell id="b8AhEYNzeCTfe8Gavcil-28" value="" style="curved=1;startArrow=none;;exitX=1;exitY=0.5;entryX=0;entryY=0.75;entryDx=0;entryDy=0;exitDx=0;exitDy=0;" edge="1" parent="1" source="b8AhEYNzeCTfe8Gavcil-25">
          <mxGeometry relative="1" as="geometry">
            <Array as="points" />
            <mxPoint x="262" y="420" as="targetPoint" />
          </mxGeometry>
        </mxCell>
        <mxCell id="b8AhEYNzeCTfe8Gavcil-30" value="" style="startArrow=none;;entryX=0.5;entryY=0;rounded=0;entryDx=0;entryDy=0;edgeStyle=orthogonalEdgeStyle;" edge="1" parent="1">
          <mxGeometry relative="1" as="geometry">
            <mxPoint x="710" y="430" as="sourcePoint" />
            <mxPoint x="760" y="499.99999999999994" as="targetPoint" />
          </mxGeometry>
        </mxCell>
        <mxCell id="b8AhEYNzeCTfe8Gavcil-31" value="&lt;div&gt;Initial&lt;/div&gt;&lt;div&gt;state&lt;/div&gt;" style="text;html=1;align=center;verticalAlign=middle;whiteSpace=wrap;rounded=0;" vertex="1" parent="1">
          <mxGeometry x="140" y="410" width="40" height="20" as="geometry" />
        </mxCell>
        <mxCell id="b8AhEYNzeCTfe8Gavcil-32" value="Record found with household information" style="text;html=1;align=center;verticalAlign=middle;whiteSpace=wrap;rounded=0;" vertex="1" parent="1">
          <mxGeometry x="640" y="440" width="120" height="40" as="geometry" />
        </mxCell>
        <mxCell id="b8AhEYNzeCTfe8Gavcil-34" value="Household owner acknowedged" style="text;html=1;align=center;verticalAlign=middle;whiteSpace=wrap;rounded=0;" vertex="1" parent="1">
          <mxGeometry x="650" y="580" width="100" height="40" as="geometry" />
        </mxCell>
        <mxCell id="b8AhEYNzeCTfe8Gavcil-35" value="" style="curved=0;startArrow=none;;entryX=0.5;entryY=0;rounded=0;entryDx=0;entryDy=0;exitX=0.5;exitY=1;exitDx=0;exitDy=0;" edge="1" parent="1">
          <mxGeometry relative="1" as="geometry">
            <Array as="points" />
            <mxPoint x="760.0000000000002" y="580" as="sourcePoint" />
            <mxPoint x="760" y="620" as="targetPoint" />
          </mxGeometry>
        </mxCell>
        <mxCell id="b8AhEYNzeCTfe8Gavcil-36" value="Generating new Procedure ID" style="rounded=1;absoluteArcSize=1;arcSize=14;whiteSpace=wrap;strokeWidth=2;" vertex="1" parent="1">
          <mxGeometry x="720" y="620" width="80" height="80" as="geometry" />
        </mxCell>
        <mxCell id="b8AhEYNzeCTfe8Gavcil-40" value="New Procedure ID generated" style="text;html=1;align=center;verticalAlign=middle;whiteSpace=wrap;rounded=0;" vertex="1" parent="1">
          <mxGeometry x="660" y="700" width="90" height="40" as="geometry" />
        </mxCell>
        <mxCell id="b8AhEYNzeCTfe8Gavcil-43" value="Requesting Procedure ID" style="rounded=1;absoluteArcSize=1;arcSize=14;whiteSpace=wrap;strokeWidth=2;" vertex="1" parent="1">
          <mxGeometry x="260" y="380" width="80" height="80" as="geometry" />
        </mxCell>
        <mxCell id="b8AhEYNzeCTfe8Gavcil-44" value="" style="curved=1;startArrow=none;;exitX=1;exitY=0.5;exitDx=0;exitDy=0;entryX=0;entryY=0.5;entryDx=0;entryDy=0;" edge="1" parent="1" source="b8AhEYNzeCTfe8Gavcil-26" target="b8AhEYNzeCTfe8Gavcil-27">
          <mxGeometry relative="1" as="geometry">
            <Array as="points" />
            <mxPoint x="432" y="420" as="sourcePoint" />
            <mxPoint x="492" y="420" as="targetPoint" />
          </mxGeometry>
        </mxCell>
        <mxCell id="b8AhEYNzeCTfe8Gavcil-45" value="No such ID" style="text;html=1;align=center;verticalAlign=middle;whiteSpace=wrap;rounded=0;" vertex="1" parent="1">
          <mxGeometry x="340" y="390" width="60" height="20" as="geometry" />
        </mxCell>
        <mxCell id="b8AhEYNzeCTfe8Gavcil-52" value="Search name, address according to identification" style="text;html=1;align=center;verticalAlign=middle;whiteSpace=wrap;rounded=0;" vertex="1" parent="1">
          <mxGeometry x="480" y="330" width="70" height="90" as="geometry" />
        </mxCell>
        <mxCell id="b8AhEYNzeCTfe8Gavcil-53" value="Patient or household owner declined, (no such person / identity theft)" style="text;html=1;align=center;verticalAlign=middle;whiteSpace=wrap;rounded=0;" vertex="1" parent="1">
          <mxGeometry x="470" y="540" width="100" height="90" as="geometry" />
        </mxCell>
        <mxCell id="b8AhEYNzeCTfe8Gavcil-54" value="" style="curved=0;startArrow=none;;entryX=0.5;entryY=0;rounded=0;entryDx=0;entryDy=0;exitX=0.5;exitY=1;exitDx=0;exitDy=0;" edge="1" parent="1">
          <mxGeometry relative="1" as="geometry">
            <Array as="points" />
            <mxPoint x="759.1700000000001" y="940" as="sourcePoint" />
            <mxPoint x="759.1700000000001" y="980" as="targetPoint" />
          </mxGeometry>
        </mxCell>
        <mxCell id="b8AhEYNzeCTfe8Gavcil-55" value="" style="curved=0;startArrow=none;;entryX=0.5;entryY=0;rounded=0;entryDx=0;entryDy=0;exitX=0.5;exitY=1;exitDx=0;exitDy=0;" edge="1" parent="1">
          <mxGeometry relative="1" as="geometry">
            <Array as="points" />
            <mxPoint x="760" y="700" as="sourcePoint" />
            <mxPoint x="760" y="740" as="targetPoint" />
          </mxGeometry>
        </mxCell>
        <mxCell id="b8AhEYNzeCTfe8Gavcil-56" value="Updating last visit time" style="rounded=1;absoluteArcSize=1;arcSize=14;whiteSpace=wrap;strokeWidth=2;" vertex="1" parent="1">
          <mxGeometry x="720" y="740" width="80" height="80" as="geometry" />
        </mxCell>
        <mxCell id="b8AhEYNzeCTfe8Gavcil-57" value="" style="curved=0;startArrow=none;;entryX=0.5;entryY=0;rounded=0;entryDx=0;entryDy=0;exitX=0.5;exitY=1;exitDx=0;exitDy=0;" edge="1" parent="1">
          <mxGeometry relative="1" as="geometry">
            <Array as="points" />
            <mxPoint x="760" y="820" as="sourcePoint" />
            <mxPoint x="760" y="860" as="targetPoint" />
          </mxGeometry>
        </mxCell>
        <mxCell id="b8AhEYNzeCTfe8Gavcil-58" value="Providing Procedure ID to patient" style="rounded=1;absoluteArcSize=1;arcSize=14;whiteSpace=wrap;strokeWidth=2;" vertex="1" parent="1">
          <mxGeometry x="720" y="860" width="80" height="80" as="geometry" />
        </mxCell>
        <mxCell id="b8AhEYNzeCTfe8Gavcil-60" value="Last visit time updated" style="text;html=1;align=center;verticalAlign=middle;whiteSpace=wrap;rounded=0;" vertex="1" parent="1">
          <mxGeometry x="660" y="820" width="90" height="40" as="geometry" />
        </mxCell>
        <mxCell id="b8AhEYNzeCTfe8Gavcil-61" value="Patient confirms (Provide Procedure ID)" style="text;html=1;align=center;verticalAlign=middle;whiteSpace=wrap;rounded=0;" vertex="1" parent="1">
          <mxGeometry x="300" y="700" width="130" height="60" as="geometry" />
        </mxCell>
        <mxCell id="b8AhEYNzeCTfe8Gavcil-62" value="" style="startArrow=none;;entryX=0;entryY=0.5;entryDx=0;entryDy=0;edgeStyle=orthogonalEdgeStyle;rounded=0;curved=0;exitX=0.5;exitY=1;exitDx=0;exitDy=0;" edge="1" parent="1" source="b8AhEYNzeCTfe8Gavcil-43">
          <mxGeometry relative="1" as="geometry">
            <Array as="points">
              <mxPoint x="300" y="990" />
            </Array>
            <mxPoint x="559.72" y="460" as="sourcePoint" />
            <mxPoint x="750.0000000000152" y="990" as="targetPoint" />
          </mxGeometry>
        </mxCell>
        <mxCell id="b8AhEYNzeCTfe8Gavcil-76" value="" style="endArrow=classic;html=1;rounded=0;edgeStyle=orthogonalEdgeStyle;exitX=0;exitY=0.25;exitDx=0;exitDy=0;entryX=0;entryY=0.75;entryDx=0;entryDy=0;" edge="1" parent="1" target="b8AhEYNzeCTfe8Gavcil-26">
          <mxGeometry width="50" height="50" relative="1" as="geometry">
            <mxPoint x="720.0000000000002" y="520" as="sourcePoint" />
            <mxPoint x="750" y="530" as="targetPoint" />
            <Array as="points">
              <mxPoint x="720" y="540" />
              <mxPoint x="380" y="540" />
              <mxPoint x="380" y="440" />
            </Array>
          </mxGeometry>
        </mxCell>
        <mxCell id="b8AhEYNzeCTfe8Gavcil-79" value="" style="curved=1;startArrow=none;;exitX=1;exitY=0.5;exitDx=0;exitDy=0;entryX=0;entryY=0.5;entryDx=0;entryDy=0;" edge="1" parent="1" source="b8AhEYNzeCTfe8Gavcil-43" target="b8AhEYNzeCTfe8Gavcil-26">
          <mxGeometry relative="1" as="geometry">
            <Array as="points" />
            <mxPoint x="342" y="420" as="sourcePoint" />
            <mxPoint x="492" y="420" as="targetPoint" />
          </mxGeometry>
        </mxCell>
        <mxCell id="b8AhEYNzeCTfe8Gavcil-26" value="Requesting Identification" style="rounded=1;absoluteArcSize=1;arcSize=14;whiteSpace=wrap;strokeWidth=2;" vertex="1" parent="1">
          <mxGeometry x="400" y="380" width="80" height="80" as="geometry" />
        </mxCell>
        <mxCell id="b8AhEYNzeCTfe8Gavcil-104" value="" style="endArrow=classic;html=1;rounded=0;edgeStyle=orthogonalEdgeStyle;exitX=0;exitY=0.5;exitDx=0;exitDy=0;entryX=0.5;entryY=0;entryDx=0;entryDy=0;" edge="1" parent="1" source="b8AhEYNzeCTfe8Gavcil-106" target="b8AhEYNzeCTfe8Gavcil-27">
          <mxGeometry width="50" height="50" relative="1" as="geometry">
            <mxPoint x="930" y="355" as="sourcePoint" />
            <mxPoint x="930" y="380" as="targetPoint" />
            <Array as="points">
              <mxPoint x="590" y="60" />
              <mxPoint x="590" y="360" />
              <mxPoint x="590" y="360" />
            </Array>
          </mxGeometry>
        </mxCell>
        <mxCell id="b8AhEYNzeCTfe8Gavcil-105" value="Patient declines" style="text;html=1;align=center;verticalAlign=middle;whiteSpace=wrap;rounded=0;" vertex="1" parent="1">
          <mxGeometry x="590" y="60" width="60" height="40" as="geometry" />
        </mxCell>
        <mxCell id="b8AhEYNzeCTfe8Gavcil-106" value="Confirming: new patient?" style="rounded=1;absoluteArcSize=1;arcSize=14;whiteSpace=wrap;strokeWidth=2;" vertex="1" parent="1">
          <mxGeometry x="730" y="20" width="80" height="80" as="geometry" />
        </mxCell>
        <mxCell id="b8AhEYNzeCTfe8Gavcil-107" value="" style="endArrow=classic;html=1;rounded=0;edgeStyle=orthogonalEdgeStyle;endFill=1;startArrow=none;startFill=0;entryX=0.5;entryY=1;entryDx=0;entryDy=0;" edge="1" parent="1" target="b8AhEYNzeCTfe8Gavcil-106">
          <mxGeometry width="50" height="50" relative="1" as="geometry">
            <mxPoint x="710" y="410" as="sourcePoint" />
            <mxPoint x="1110" y="430" as="targetPoint" />
          </mxGeometry>
        </mxCell>
        <mxCell id="b8AhEYNzeCTfe8Gavcil-108" value="No such record" style="text;html=1;align=center;verticalAlign=middle;whiteSpace=wrap;rounded=0;" vertex="1" parent="1">
          <mxGeometry x="710" y="370" width="60" height="40" as="geometry" />
        </mxCell>
        <mxCell id="b8AhEYNzeCTfe8Gavcil-109" value="Creating new patient record" style="rounded=1;absoluteArcSize=1;arcSize=14;whiteSpace=wrap;strokeWidth=2;" vertex="1" parent="1">
          <mxGeometry x="870" y="20" width="80" height="80" as="geometry" />
        </mxCell>
        <mxCell id="b8AhEYNzeCTfe8Gavcil-110" value="" style="endArrow=classic;html=1;rounded=0;edgeStyle=orthogonalEdgeStyle;exitX=1;exitY=0.5;exitDx=0;exitDy=0;endFill=1;startArrow=none;startFill=0;entryX=0;entryY=0.5;entryDx=0;entryDy=0;" edge="1" parent="1" source="b8AhEYNzeCTfe8Gavcil-106" target="b8AhEYNzeCTfe8Gavcil-109">
          <mxGeometry width="50" height="50" relative="1" as="geometry">
            <mxPoint x="780" y="310" as="sourcePoint" />
            <mxPoint x="780" y="160" as="targetPoint" />
          </mxGeometry>
        </mxCell>
        <mxCell id="b8AhEYNzeCTfe8Gavcil-111" value="Patient confirms" style="text;html=1;align=center;verticalAlign=middle;whiteSpace=wrap;rounded=0;" vertex="1" parent="1">
          <mxGeometry x="810" y="20" width="60" height="40" as="geometry" />
        </mxCell>
        <mxCell id="b8AhEYNzeCTfe8Gavcil-112" value="Requesting insurance-information" style="rounded=1;absoluteArcSize=1;arcSize=14;whiteSpace=wrap;strokeWidth=2;" vertex="1" parent="1">
          <mxGeometry x="1010" y="140" width="80" height="80" as="geometry" />
        </mxCell>
        <mxCell id="b8AhEYNzeCTfe8Gavcil-113" value="Updating insurance-information" style="rounded=1;absoluteArcSize=1;arcSize=14;whiteSpace=wrap;strokeWidth=2;" vertex="1" parent="1">
          <mxGeometry x="1010" y="260" width="80" height="80" as="geometry" />
        </mxCell>
        <mxCell id="b8AhEYNzeCTfe8Gavcil-114" value="" style="endArrow=classic;html=1;rounded=0;edgeStyle=orthogonalEdgeStyle;exitX=0.5;exitY=1;exitDx=0;exitDy=0;endFill=1;startArrow=none;startFill=0;entryX=0.5;entryY=0;entryDx=0;entryDy=0;" edge="1" parent="1">
          <mxGeometry width="50" height="50" relative="1" as="geometry">
            <mxPoint x="1049.67" y="340" as="sourcePoint" />
            <mxPoint x="1049.67" y="380" as="targetPoint" />
            <Array as="points" />
          </mxGeometry>
        </mxCell>
        <mxCell id="b8AhEYNzeCTfe8Gavcil-115" value="" style="endArrow=classic;html=1;rounded=0;edgeStyle=orthogonalEdgeStyle;exitX=0.5;exitY=1;exitDx=0;exitDy=0;endFill=1;startArrow=none;startFill=0;entryX=0.5;entryY=0;entryDx=0;entryDy=0;" edge="1" parent="1">
          <mxGeometry width="50" height="50" relative="1" as="geometry">
            <mxPoint x="1050" y="220" as="sourcePoint" />
            <mxPoint x="1050" y="260" as="targetPoint" />
            <Array as="points" />
          </mxGeometry>
        </mxCell>
        <mxCell id="b8AhEYNzeCTfe8Gavcil-116" value="" style="endArrow=classic;html=1;rounded=0;edgeStyle=orthogonalEdgeStyle;exitX=1;exitY=0.5;exitDx=0;exitDy=0;endFill=1;startArrow=none;startFill=0;entryX=0;entryY=0.5;entryDx=0;entryDy=0;" edge="1" parent="1" source="b8AhEYNzeCTfe8Gavcil-109" target="b8AhEYNzeCTfe8Gavcil-118">
          <mxGeometry width="50" height="50" relative="1" as="geometry">
            <mxPoint x="909.6700000000001" y="102" as="sourcePoint" />
            <mxPoint x="909.6700000000001" y="142" as="targetPoint" />
            <Array as="points" />
          </mxGeometry>
        </mxCell>
        <mxCell id="b8AhEYNzeCTfe8Gavcil-117" value="Patient-record updated" style="text;html=1;align=center;verticalAlign=middle;whiteSpace=wrap;rounded=0;" vertex="1" parent="1">
          <mxGeometry x="1050" y="350" width="140" height="20" as="geometry" />
        </mxCell>
        <mxCell id="b8AhEYNzeCTfe8Gavcil-118" value="Updating first visit time" style="rounded=1;absoluteArcSize=1;arcSize=14;whiteSpace=wrap;strokeWidth=2;" vertex="1" parent="1">
          <mxGeometry x="1010" y="20" width="80" height="80" as="geometry" />
        </mxCell>
        <mxCell id="b8AhEYNzeCTfe8Gavcil-119" value="" style="endArrow=classic;html=1;rounded=0;edgeStyle=orthogonalEdgeStyle;exitX=0.5;exitY=1;exitDx=0;exitDy=0;endFill=1;startArrow=none;startFill=0;entryX=0.5;entryY=0;entryDx=0;entryDy=0;" edge="1" parent="1" source="b8AhEYNzeCTfe8Gavcil-118" target="b8AhEYNzeCTfe8Gavcil-112">
          <mxGeometry width="50" height="50" relative="1" as="geometry">
            <mxPoint x="960" y="72" as="sourcePoint" />
            <mxPoint x="1020" y="72" as="targetPoint" />
            <Array as="points" />
          </mxGeometry>
        </mxCell>
        <mxCell id="b8AhEYNzeCTfe8Gavcil-120" value="Patient provided insurance information" style="text;html=1;align=center;verticalAlign=middle;whiteSpace=wrap;rounded=0;" vertex="1" parent="1">
          <mxGeometry x="1050" y="230" width="160" height="20" as="geometry" />
        </mxCell>
        <mxCell id="b8AhEYNzeCTfe8Gavcil-121" value="First visit time updated" style="text;html=1;align=center;verticalAlign=middle;whiteSpace=wrap;rounded=0;" vertex="1" parent="1">
          <mxGeometry x="1050" y="110" width="140" height="20" as="geometry" />
        </mxCell>
        <mxCell id="b8AhEYNzeCTfe8Gavcil-122" value="Record created" style="text;html=1;align=center;verticalAlign=middle;whiteSpace=wrap;rounded=0;" vertex="1" parent="1">
          <mxGeometry x="960" y="20" width="50" height="40" as="geometry" />
        </mxCell>
        <mxCell id="b8AhEYNzeCTfe8Gavcil-123" value="Updating household belonging" style="rounded=1;absoluteArcSize=1;arcSize=14;whiteSpace=wrap;strokeWidth=2;" vertex="1" parent="1">
          <mxGeometry x="1010" y="500" width="80" height="80" as="geometry" />
        </mxCell>
        <mxCell id="b8AhEYNzeCTfe8Gavcil-124" value="Requesting household belonging" style="rounded=1;absoluteArcSize=1;arcSize=14;whiteSpace=wrap;strokeWidth=2;" vertex="1" parent="1">
          <mxGeometry x="1010" y="380" width="80" height="80" as="geometry" />
        </mxCell>
        <mxCell id="b8AhEYNzeCTfe8Gavcil-125" value="" style="endArrow=classic;html=1;rounded=0;edgeStyle=orthogonalEdgeStyle;endFill=1;startArrow=none;startFill=0;entryX=0;entryY=0.5;entryDx=0;entryDy=0;" edge="1" parent="1" target="b8AhEYNzeCTfe8Gavcil-124">
          <mxGeometry width="50" height="50" relative="1" as="geometry">
            <mxPoint x="710" y="420" as="sourcePoint" />
            <mxPoint x="1005" y="439.99999999999994" as="targetPoint" />
          </mxGeometry>
        </mxCell>
        <mxCell id="b8AhEYNzeCTfe8Gavcil-126" value="Record found without household information" style="text;html=1;align=center;verticalAlign=middle;whiteSpace=wrap;rounded=0;" vertex="1" parent="1">
          <mxGeometry x="810" y="390" width="200" height="30" as="geometry" />
        </mxCell>
        <mxCell id="b8AhEYNzeCTfe8Gavcil-127" value="" style="endArrow=classic;html=1;rounded=0;edgeStyle=orthogonalEdgeStyle;exitX=0.5;exitY=1;exitDx=0;exitDy=0;endFill=1;startArrow=none;startFill=0;entryX=0.5;entryY=0;entryDx=0;entryDy=0;" edge="1" parent="1" source="b8AhEYNzeCTfe8Gavcil-124" target="b8AhEYNzeCTfe8Gavcil-123">
          <mxGeometry width="50" height="50" relative="1" as="geometry">
            <mxPoint x="905" y="459.99999999999994" as="sourcePoint" />
            <mxPoint x="875" y="429.99999999999994" as="targetPoint" />
            <Array as="points" />
          </mxGeometry>
        </mxCell>
        <mxCell id="b8AhEYNzeCTfe8Gavcil-128" value="Patient confirmed" style="text;html=1;align=center;verticalAlign=middle;whiteSpace=wrap;rounded=0;" vertex="1" parent="1">
          <mxGeometry x="1050" y="470" width="110" height="20" as="geometry" />
        </mxCell>
        <mxCell id="b8AhEYNzeCTfe8Gavcil-129" value="" style="endArrow=classic;html=1;rounded=0;edgeStyle=orthogonalEdgeStyle;exitX=0;exitY=0.5;exitDx=0;exitDy=0;endFill=1;startArrow=none;startFill=0;entryX=1;entryY=0.5;entryDx=0;entryDy=0;" edge="1" parent="1" source="b8AhEYNzeCTfe8Gavcil-123" target="b8AhEYNzeCTfe8Gavcil-133">
          <mxGeometry width="50" height="50" relative="1" as="geometry">
            <mxPoint x="815" y="509.99999999999994" as="sourcePoint" />
            <mxPoint x="805" y="540" as="targetPoint" />
            <Array as="points" />
          </mxGeometry>
        </mxCell>
        <mxCell id="b8AhEYNzeCTfe8Gavcil-130" value="Patient-record updated" style="text;html=1;align=center;verticalAlign=middle;whiteSpace=wrap;rounded=0;" vertex="1" parent="1">
          <mxGeometry x="810" y="510" width="200" height="20" as="geometry" />
        </mxCell>
        <mxCell id="b8AhEYNzeCTfe8Gavcil-131" value="" style="endArrow=classic;html=1;rounded=0;edgeStyle=orthogonalEdgeStyle;exitX=1;exitY=0.5;exitDx=0;exitDy=0;endFill=1;startArrow=none;startFill=0;entryX=1;entryY=0.5;entryDx=0;entryDy=0;" edge="1" parent="1" source="b8AhEYNzeCTfe8Gavcil-124" target="b8AhEYNzeCTfe8Gavcil-36">
          <mxGeometry width="50" height="50" relative="1" as="geometry">
            <mxPoint x="1005" y="470" as="sourcePoint" />
            <mxPoint x="805" y="660" as="targetPoint" />
            <Array as="points">
              <mxPoint x="1160" y="420" />
              <mxPoint x="1160" y="660" />
            </Array>
          </mxGeometry>
        </mxCell>
        <mxCell id="b8AhEYNzeCTfe8Gavcil-132" value="Patient declined / No household" style="text;html=1;align=center;verticalAlign=middle;whiteSpace=wrap;rounded=0;" vertex="1" parent="1">
          <mxGeometry x="890" y="620" width="190" height="40" as="geometry" />
        </mxCell>
        <mxCell id="b8AhEYNzeCTfe8Gavcil-133" value="Confirming household belonging" style="rounded=1;absoluteArcSize=1;arcSize=14;whiteSpace=wrap;strokeWidth=2;" vertex="1" parent="1">
          <mxGeometry x="720" y="500" width="80" height="80" as="geometry" />
        </mxCell>
        <mxCell id="b8AhEYNzeCTfe8Gavcil-134" value="" style="curved=1;startArrow=none;;exitX=1;exitY=0.5;exitDx=0;exitDy=0;endArrow=none;endFill=0;" edge="1" parent="1" source="b8AhEYNzeCTfe8Gavcil-27">
          <mxGeometry relative="1" as="geometry">
            <Array as="points" />
            <mxPoint x="632" y="420" as="sourcePoint" />
            <mxPoint x="710" y="420" as="targetPoint" />
          </mxGeometry>
        </mxCell>
        <mxCell id="b8AhEYNzeCTfe8Gavcil-135" value="" style="curved=1;startArrow=none;;endArrow=none;endFill=0;strokeWidth=4;" edge="1" parent="1">
          <mxGeometry relative="1" as="geometry">
            <Array as="points" />
            <mxPoint x="710" y="400" as="sourcePoint" />
            <mxPoint x="710" y="440" as="targetPoint" />
          </mxGeometry>
        </mxCell>
        <mxCell id="b8AhEYNzeCTfe8Gavcil-136" value="" style="ellipse;shape=endState;fillColor=strokeColor;" vertex="1" parent="1">
          <mxGeometry x="750" y="980" width="20" height="20" as="geometry" />
        </mxCell>
        <mxCell id="b8AhEYNzeCTfe8Gavcil-137" value="Finish state" style="text;html=1;align=center;verticalAlign=middle;whiteSpace=wrap;rounded=0;" vertex="1" parent="1">
          <mxGeometry x="720" y="1010" width="80" height="10" as="geometry" />
        </mxCell>
        <mxCell id="b8AhEYNzeCTfe8Gavcil-138" value="Search completed" style="text;html=1;align=center;verticalAlign=middle;whiteSpace=wrap;rounded=0;" vertex="1" parent="1">
          <mxGeometry x="640" y="380" width="60" height="40" as="geometry" />
        </mxCell>
        <mxCell id="b8AhEYNzeCTfe8Gavcil-139" value="&lt;br&gt;Arrival of patient&lt;div&gt;&lt;br/&gt;&lt;/div&gt;" style="text;html=1;align=center;verticalAlign=middle;whiteSpace=wrap;rounded=0;" vertex="1" parent="1">
          <mxGeometry x="200" y="390" width="60" height="25" as="geometry" />
        </mxCell>
      </root>
    </mxGraphModel>
  </diagram>
</mxfile>
